<svg width="22" height="20" viewBox="0 0 22 20" fill="none" xmlns="http://www.w3.org/2000/svg">
<rect width="22" height="20" rx="4" fill="#515151"/>
<path d="M7.98065 14.1193C7.63406 14.1193 7.31587 14.0341 7.0261 13.8636C6.73633 13.6903 6.50621 13.4602 6.33576 13.1733C6.16531 12.8835 6.08008 12.5653 6.08008 12.2188C6.08008 11.8693 6.16531 11.5511 6.33576 11.2642C6.50621 10.9744 6.73633 10.7429 7.0261 10.5696C7.31587 10.3963 7.63406 10.3097 7.98065 10.3097H8.91815V8.80114H7.98065C7.63406 8.80114 7.31587 8.71591 7.0261 8.54545C6.73633 8.375 6.50621 8.14631 6.33576 7.85938C6.16531 7.5696 6.08008 7.25 6.08008 6.90057C6.08008 6.55114 6.16531 6.23295 6.33576 5.94602C6.50621 5.65909 6.73633 5.4304 7.0261 5.25994C7.31587 5.08665 7.63406 5 7.98065 5C8.33008 5 8.64826 5.08665 8.93519 5.25994C9.22496 5.4304 9.45508 5.65909 9.62553 5.94602C9.79883 6.23295 9.88548 6.55114 9.88548 6.90057V7.82955H11.3983V6.90057C11.3983 6.55114 11.4835 6.23295 11.6539 5.94602C11.8244 5.65909 12.0531 5.4304 12.34 5.25994C12.6298 5.08665 12.9494 5 13.2988 5C13.6483 5 13.9664 5.08665 14.2534 5.25994C14.5403 5.4304 14.769 5.65909 14.9395 5.94602C15.1099 6.23295 15.1951 6.55114 15.1951 6.90057C15.1951 7.25 15.1099 7.5696 14.9395 7.85938C14.769 8.14631 14.5403 8.375 14.2534 8.54545C13.9664 8.71591 13.6483 8.80114 13.2988 8.80114H12.3656V10.3097H13.2988C13.6483 10.3097 13.9664 10.3963 14.2534 10.5696C14.5403 10.7429 14.769 10.9744 14.9395 11.2642C15.1099 11.5511 15.1951 11.8693 15.1951 12.2188C15.1951 12.5653 15.1099 12.8835 14.9395 13.1733C14.769 13.4602 14.5403 13.6903 14.2534 13.8636C13.9664 14.0341 13.6483 14.1193 13.2988 14.1193C12.9494 14.1193 12.6298 14.0341 12.34 13.8636C12.0531 13.6903 11.8244 13.4602 11.6539 13.1733C11.4835 12.8835 11.3983 12.5653 11.3983 12.2188V11.2813H9.88548V12.2188C9.88548 12.5653 9.79883 12.8835 9.62553 13.1733C9.45508 13.4602 9.22496 13.6903 8.93519 13.8636C8.64826 14.0341 8.33008 14.1193 7.98065 14.1193ZM7.98065 13.1477C8.15394 13.1477 8.31019 13.1065 8.4494 13.0241C8.59144 12.9418 8.70508 12.8295 8.79031 12.6875C8.87553 12.5455 8.91815 12.3892 8.91815 12.2188V11.2813H7.98065C7.81019 11.2813 7.65394 11.3239 7.5119 11.4091C7.36985 11.4915 7.25621 11.6037 7.17099 11.7457C7.0886 11.8878 7.04741 12.0455 7.04741 12.2188C7.04741 12.3892 7.0886 12.5455 7.17099 12.6875C7.25621 12.8295 7.36985 12.9418 7.5119 13.0241C7.65394 13.1065 7.81019 13.1477 7.98065 13.1477ZM7.98065 7.82955H8.91815V6.90057C8.91815 6.72727 8.87553 6.57102 8.79031 6.43182C8.70508 6.28977 8.59144 6.17756 8.4494 6.09517C8.31019 6.01278 8.15394 5.97159 7.98065 5.97159C7.81019 5.97159 7.65394 6.01278 7.5119 6.09517C7.36985 6.17756 7.25621 6.28977 7.17099 6.43182C7.0886 6.57102 7.04741 6.72727 7.04741 6.90057C7.04741 7.07386 7.0886 7.23153 7.17099 7.37358C7.25621 7.51278 7.36985 7.62358 7.5119 7.70597C7.65394 7.78835 7.81019 7.82955 7.98065 7.82955ZM12.3656 7.82955H13.2988C13.4721 7.82955 13.6284 7.78835 13.7676 7.70597C13.9068 7.62358 14.0176 7.51278 14.1 7.37358C14.1852 7.23153 14.2278 7.07386 14.2278 6.90057C14.2278 6.72727 14.1852 6.57102 14.1 6.43182C14.0176 6.28977 13.9068 6.17756 13.7676 6.09517C13.6284 6.01278 13.4721 5.97159 13.2988 5.97159C13.1255 5.97159 12.9679 6.01278 12.8258 6.09517C12.6838 6.17756 12.5716 6.28977 12.4892 6.43182C12.4068 6.57102 12.3656 6.72727 12.3656 6.90057V7.82955ZM13.2988 13.1477C13.4721 13.1477 13.6284 13.1065 13.7676 13.0241C13.9068 12.9418 14.0176 12.8295 14.1 12.6875C14.1852 12.5455 14.2278 12.3892 14.2278 12.2188C14.2278 12.0455 14.1852 11.8878 14.1 11.7457C14.0176 11.6037 13.9068 11.4915 13.7676 11.4091C13.6284 11.3239 13.4721 11.2813 13.2988 11.2813H12.3656V12.2188C12.3656 12.3892 12.4068 12.5455 12.4892 12.6875C12.5716 12.8295 12.6838 12.9418 12.8258 13.0241C12.9679 13.1065 13.1255 13.1477 13.2988 13.1477ZM9.88548 10.3097H11.3983V8.80114H9.88548V10.3097Z" fill="#C8C8C8"/>
</svg>
