<svg width="22" height="20" viewBox="0 0 22 20" fill="none" xmlns="http://www.w3.org/2000/svg">
<rect width="22" height="20" rx="4" fill="#515151"/>
<path d="M6.80375 10.9484V9.74132H14.1139C14.6293 9.74132 15.0452 9.60117 15.3617 9.32088C15.6781 9.03155 15.8364 8.6518 15.8364 8.18163C15.8364 7.72955 15.6781 7.36336 15.3617 7.08307C15.0452 6.80278 14.6293 6.66263 14.1139 6.66263H13.9783V5.45557H14.1139C14.7016 5.45557 15.2125 5.57311 15.6465 5.80819C16.0895 6.03423 16.4331 6.35069 16.6773 6.75757C16.9214 7.16444 17.0434 7.63913 17.0434 8.18163C17.0434 8.73317 16.9214 9.2169 16.6773 9.63282C16.4331 10.0487 16.0895 10.3742 15.6465 10.6093C15.2125 10.8354 14.7016 10.9484 14.1139 10.9484H6.80375ZM9.028 13.9999L5.71875 10.6229V9.98544L9.028 6.68975H10.6555L6.70881 10.7314V9.87694L10.6555 13.9999H9.028Z" fill="#C8C8C8"/>
</svg>
