<svg width="22" height="20" viewBox="0 0 22 20" fill="none" xmlns="http://www.w3.org/2000/svg">
<rect width="22" height="20" rx="4" fill="#515151"/>
<path d="M4.48825 12V6.94797H7.84497V7.76172H5.4105V9.05694H7.70934V9.87069H5.4105V11.1862H7.84497V12H4.48825ZM10.3251 12.0814C10.0041 12.0814 9.7057 12.0226 9.42993 11.9051C9.15868 11.7875 8.92359 11.6248 8.72468 11.4168C8.53028 11.2043 8.38787 10.9579 8.29746 10.6777L9.06374 10.3454C9.1858 10.6347 9.36211 10.863 9.59268 11.0303C9.82324 11.193 10.0832 11.2744 10.3725 11.2744C10.5353 11.2744 10.6754 11.2495 10.793 11.1998C10.915 11.1456 11.0077 11.0732 11.071 10.9828C11.1388 10.8924 11.1727 10.7839 11.1727 10.6573C11.1727 10.5081 11.1275 10.3861 11.0371 10.2911C10.9512 10.1917 10.8201 10.1148 10.6438 10.0606L9.67405 9.74862C9.28074 9.62656 8.98462 9.44347 8.78571 9.19934C8.58679 8.95522 8.48733 8.66815 8.48733 8.33812C8.48733 8.04879 8.55741 7.79336 8.69755 7.57184C8.84222 7.35032 9.04114 7.17853 9.2943 7.05647C9.55199 6.92989 9.84584 6.86659 10.1759 6.86659C10.4788 6.86659 10.7568 6.92084 11.01 7.02934C11.2631 7.13332 11.4801 7.28025 11.661 7.47012C11.8463 7.65548 11.9842 7.87474 12.0746 8.12791L11.3151 8.46697C11.2157 8.2138 11.0665 8.01941 10.8676 7.88378C10.6686 7.74364 10.4381 7.67356 10.1759 7.67356C10.0222 7.67356 9.88653 7.70069 9.76899 7.75494C9.65145 7.80467 9.55877 7.877 9.49096 7.97194C9.42767 8.06235 9.39602 8.17085 9.39602 8.29744C9.39602 8.43758 9.44123 8.56191 9.53165 8.67041C9.62206 8.77439 9.75995 8.85576 9.9453 8.91453L10.8743 9.20612C11.2767 9.33723 11.5773 9.51806 11.7762 9.74862C11.9797 9.97919 12.0814 10.264 12.0814 10.6031C12.0814 10.8924 12.0068 11.1478 11.8576 11.3693C11.7084 11.5909 11.5027 11.7649 11.2405 11.8915C10.9783 12.0181 10.6732 12.0814 10.3251 12.0814ZM15.2853 12.0814C14.9236 12.0814 14.5891 12.0158 14.2816 11.8847C13.9788 11.7536 13.712 11.5705 13.4815 11.3354C13.2554 11.1004 13.0791 10.8246 12.9525 10.5081C12.8259 10.1917 12.7626 9.84582 12.7626 9.47059C12.7626 9.09536 12.8237 8.74952 12.9457 8.43306C13.0723 8.11208 13.2486 7.83631 13.4747 7.60575C13.7052 7.37067 13.9742 7.18983 14.2816 7.06325C14.5891 6.93215 14.9236 6.86659 15.2853 6.86659C15.6469 6.86659 15.9702 6.92762 16.255 7.04969C16.5443 7.17175 16.7884 7.3345 16.9874 7.53794C17.1863 7.73685 17.3287 7.95611 17.4146 8.19572L16.5873 8.58225C16.4923 8.32908 16.3318 8.12112 16.1058 7.95837C15.8798 7.7911 15.6063 7.70747 15.2853 7.70747C14.9688 7.70747 14.6885 7.78206 14.4444 7.93125C14.2048 8.08044 14.0172 8.28614 13.8816 8.54834C13.7504 8.81055 13.6849 9.11797 13.6849 9.47059C13.6849 9.82322 13.7504 10.1329 13.8816 10.3996C14.0172 10.6618 14.2048 10.8675 14.4444 11.0167C14.6885 11.1659 14.9688 11.2405 15.2853 11.2405C15.6063 11.2405 15.8798 11.1591 16.1058 10.9964C16.3318 10.8291 16.4923 10.6189 16.5873 10.3657L17.4146 10.7522C17.3287 10.9919 17.1863 11.2134 16.9874 11.4168C16.7884 11.6157 16.5443 11.7762 16.255 11.8983C15.9702 12.0203 15.6469 12.0814 15.2853 12.0814Z" fill="#C8C8C8"/>
</svg>
