<svg width="523" height="122" viewBox="0 0 523 122" fill="#E54533" xmlns="http://www.w3.org/2000/svg">
<path d="M132.934 102.739C127.681 102.739 122.822 101.787 118.357 99.883C113.892 97.9789 109.986 95.3196 106.637 91.9053C103.288 88.4909 100.662 84.4857 98.7577 79.8894C96.9192 75.2932 96 70.2702 96 64.8204C96 59.3706 96.8864 54.3475 98.6592 49.7513C100.498 45.0894 103.058 41.0842 106.342 37.7355C109.69 34.3211 113.597 31.6947 118.062 29.8562C122.527 27.9521 127.386 27 132.638 27C137.891 27 142.586 27.8864 146.723 29.6592C150.925 31.4321 154.471 33.7959 157.36 36.7506C160.249 39.6396 162.317 42.8242 163.565 46.3041L151.647 52.0166C150.268 48.2083 147.937 45.1223 144.654 42.7585C141.371 40.3947 137.366 39.2128 132.638 39.2128C128.042 39.2128 123.971 40.2962 120.426 42.463C116.946 44.6298 114.221 47.6174 112.251 51.4257C110.347 55.234 109.395 59.6989 109.395 64.8204C109.395 69.9419 110.38 74.4396 112.349 78.3136C114.385 82.1219 117.175 85.1094 120.721 87.2762C124.267 89.443 128.338 90.5264 132.934 90.5264C136.677 90.5264 140.124 89.8042 143.275 88.3596C146.427 86.8494 148.955 84.7483 150.859 82.0562C152.763 79.2985 153.715 76.0483 153.715 72.3057V66.6917L159.822 72.0102H132.638V60.6838H167.11V68.0706C167.11 73.7174 166.158 78.7076 164.254 83.0411C162.35 87.3747 159.756 91.0189 156.473 93.9736C153.256 96.8626 149.612 99.0623 145.541 100.572C141.47 102.017 137.268 102.739 132.934 102.739Z" fill="inherit"/>
<path d="M199.574 102.739C194.059 102.739 189.233 101.492 185.096 98.9966C180.96 96.5015 177.742 93.12 175.444 88.8521C173.146 84.5842 171.997 79.8566 171.997 74.6694C171.997 69.2853 173.146 64.5249 175.444 60.3883C177.808 56.186 180.992 52.8702 184.998 50.4408C189.069 48.0113 193.599 46.7966 198.589 46.7966C202.792 46.7966 206.469 47.486 209.62 48.8649C212.838 50.2438 215.563 52.1479 217.795 54.5774C220.028 57.0068 221.735 59.7974 222.917 62.9491C224.099 66.0351 224.689 69.3838 224.689 72.9951C224.689 73.9143 224.624 74.8664 224.492 75.8513C224.427 76.8362 224.263 77.6898 224 78.4121H182.634V68.563H216.712L210.605 73.1921C211.196 70.1717 211.032 67.4796 210.113 65.1159C209.259 62.7521 207.815 60.8808 205.779 59.5019C203.809 58.123 201.413 57.4336 198.589 57.4336C195.897 57.4336 193.501 58.123 191.4 59.5019C189.299 60.8151 187.69 62.7849 186.574 65.4113C185.523 67.9721 185.129 71.0909 185.392 74.7679C185.129 78.0509 185.556 80.9728 186.672 83.5336C187.854 86.0287 189.561 87.9657 191.794 89.3445C194.092 90.7234 196.718 91.4128 199.673 91.4128C202.628 91.4128 205.123 90.7891 207.158 89.5415C209.259 88.294 210.901 86.6196 212.083 84.5185L222.523 89.64C221.472 92.2008 219.831 94.466 217.598 96.4359C215.366 98.4057 212.706 99.9487 209.62 101.065C206.6 102.181 203.251 102.739 199.574 102.739Z" fill="inherit"/>
<path d="M258.206 102.739C252.953 102.739 248.16 101.525 243.827 99.0951C239.559 96.6657 236.144 93.3498 233.584 89.1476C231.089 84.9453 229.841 80.1521 229.841 74.7679C229.841 69.3838 231.089 64.5906 233.584 60.3883C236.144 56.186 239.559 52.8702 243.827 50.4408C248.095 48.0113 252.888 46.7966 258.206 46.7966C263.459 46.7966 268.219 48.0113 272.487 50.4408C276.755 52.8702 280.137 56.186 282.632 60.3883C285.193 64.5249 286.473 69.3181 286.473 74.7679C286.473 80.1521 285.193 84.9453 282.632 89.1476C280.071 93.3498 276.657 96.6657 272.389 99.0951C268.121 101.525 263.393 102.739 258.206 102.739ZM258.206 90.9204C261.095 90.9204 263.623 90.2309 265.79 88.8521C268.023 87.4732 269.763 85.5691 271.01 83.1396C272.323 80.6445 272.98 77.854 272.98 74.7679C272.98 71.6162 272.323 68.8585 271.01 66.4947C269.763 64.0653 268.023 62.1611 265.79 60.7823C263.623 59.3377 261.095 58.6155 258.206 58.6155C255.252 58.6155 252.658 59.3377 250.426 60.7823C248.193 62.1611 246.42 64.0653 245.107 66.4947C243.859 68.8585 243.236 71.6162 243.236 74.7679C243.236 77.854 243.859 80.6445 245.107 83.1396C246.42 85.5691 248.193 87.4732 250.426 88.8521C252.658 90.2309 255.252 90.9204 258.206 90.9204Z" fill="inherit"/>
<path d="M321.077 102.739C316.415 102.739 312.082 101.886 308.076 100.178C304.137 98.4713 300.722 96.1076 297.833 93.0872C295.01 90.0011 292.942 86.4226 291.628 82.3517L302.758 77.5257C304.531 81.7279 307.091 85.0438 310.44 87.4732C313.789 89.837 317.564 91.0189 321.767 91.0189C324.13 91.0189 326.166 90.6577 327.873 89.9355C329.646 89.1476 330.992 88.097 331.911 86.7838C332.896 85.4706 333.388 83.8947 333.388 82.0562C333.388 79.8894 332.732 78.1166 331.419 76.7377C330.171 75.2932 328.267 74.177 325.706 73.3891L311.622 68.8585C305.91 67.0857 301.609 64.4264 298.72 60.8808C295.831 57.3351 294.386 53.1657 294.386 48.3725C294.386 44.1702 295.404 40.4604 297.439 37.243C299.541 34.0257 302.43 31.5306 306.107 29.7577C309.849 27.9192 314.117 27 318.91 27C323.31 27 327.348 27.7879 331.025 29.3638C334.702 30.874 337.853 33.0079 340.48 35.7657C343.172 38.4577 345.174 41.6423 346.488 45.3192L335.457 50.2438C334.012 46.5668 331.845 43.7434 328.956 41.7736C326.067 39.7381 322.719 38.7204 318.91 38.7204C316.678 38.7204 314.708 39.1143 313.001 39.9023C311.294 40.6245 309.948 41.6751 308.963 43.054C308.044 44.3672 307.584 45.943 307.584 47.7815C307.584 49.817 308.241 51.6226 309.554 53.1985C310.867 54.7087 312.87 55.8906 315.562 56.7442L329.055 60.9792C334.899 62.8834 339.265 65.5098 342.154 68.8585C345.109 72.2072 346.586 76.3438 346.586 81.2683C346.586 85.4706 345.503 89.1804 343.336 92.3977C341.169 95.6151 338.182 98.143 334.373 99.9815C330.565 101.82 326.133 102.739 321.077 102.739Z" fill="inherit"/>
<path d="M355.102 101.557V47.9785H367.216V58.517L366.231 56.6457C367.479 53.4283 369.514 50.9989 372.338 49.3574C375.227 47.6502 378.575 46.7966 382.384 46.7966C386.323 46.7966 389.803 47.6502 392.824 49.3574C395.91 51.0645 398.306 53.4611 400.013 56.5472C401.721 59.5676 402.574 63.0804 402.574 67.0857V101.557H389.672V70.1389C389.672 67.7751 389.212 65.7396 388.293 64.0325C387.374 62.3253 386.093 61.0121 384.452 60.0928C382.876 59.1079 381.005 58.6155 378.838 58.6155C376.737 58.6155 374.866 59.1079 373.224 60.0928C371.583 61.0121 370.302 62.3253 369.383 64.0325C368.464 65.7396 368.004 67.7751 368.004 70.1389V101.557H355.102Z" fill="inherit"/>
<path d="M427.273 102.739C423.53 102.739 420.28 102.115 417.522 100.868C414.765 99.6204 412.631 97.8476 411.121 95.5494C409.61 93.1857 408.855 90.4608 408.855 87.3747C408.855 84.42 409.512 81.7936 410.825 79.4955C412.138 77.1317 414.174 75.1619 416.932 73.586C419.689 72.0102 423.169 70.894 427.372 70.2374L444.903 67.3811V77.2302L429.834 79.7909C427.273 80.2506 425.369 81.0713 424.121 82.2532C422.874 83.4351 422.25 84.9781 422.25 86.8823C422.25 88.7208 422.939 90.1981 424.318 91.3143C425.763 92.3649 427.536 92.8902 429.637 92.8902C432.329 92.8902 434.693 92.3321 436.728 91.2159C438.829 90.034 440.438 88.4253 441.554 86.3898C442.736 84.3543 443.327 82.1219 443.327 79.6925V65.9038C443.327 63.6057 442.408 61.7015 440.569 60.1913C438.796 58.6155 436.433 57.8275 433.478 57.8275C430.72 57.8275 428.258 58.5826 426.091 60.0928C423.99 61.5374 422.447 63.4743 421.462 65.9038L410.924 60.7823C411.974 57.9589 413.616 55.5294 415.848 53.494C418.146 51.3928 420.838 49.7513 423.924 48.5694C427.01 47.3875 430.359 46.7966 433.97 46.7966C438.37 46.7966 442.244 47.6174 445.592 49.2589C448.941 50.8347 451.535 53.0672 453.373 55.9562C455.277 58.7796 456.229 62.0955 456.229 65.9038V101.557H444.016V92.3977L446.774 92.2008C445.395 94.4989 443.754 96.4359 441.85 98.0117C439.945 99.5219 437.779 100.704 435.349 101.557C432.92 102.345 430.228 102.739 427.273 102.739Z" fill="inherit"/>
<path d="M465.692 121.255V47.9785H477.806V58.6155L476.624 55.9562C478.463 53.0672 480.958 50.8347 484.11 49.2589C487.261 47.6174 490.906 46.7966 495.042 46.7966C500.098 46.7966 504.661 48.0441 508.732 50.5392C512.803 53.0343 516.021 56.383 518.384 60.5853C520.814 64.7875 522.029 69.5151 522.029 74.7679C522.029 79.9551 520.847 84.6826 518.483 88.9506C516.119 93.2185 512.902 96.6 508.831 99.0951C504.76 101.525 500.131 102.739 494.944 102.739C491.07 102.739 487.491 101.984 484.208 100.474C480.991 98.8981 478.43 96.6657 476.526 93.7766L478.594 91.2159V121.255H465.692ZM493.466 90.9204C496.421 90.9204 499.047 90.2309 501.346 88.8521C503.644 87.4732 505.417 85.5691 506.664 83.1396C507.977 80.7102 508.634 77.9196 508.634 74.7679C508.634 71.6162 507.977 68.8585 506.664 66.4947C505.417 64.0653 503.644 62.1611 501.346 60.7823C499.047 59.3377 496.421 58.6155 493.466 58.6155C490.643 58.6155 488.082 59.3049 485.784 60.6838C483.552 62.0626 481.779 63.9996 480.466 66.4947C479.218 68.9242 478.594 71.6819 478.594 74.7679C478.594 77.9196 479.218 80.7102 480.466 83.1396C481.779 85.5691 483.552 87.4732 485.784 88.8521C488.082 90.2309 490.643 90.9204 493.466 90.9204Z" fill="inherit"/>
<g clip-path="url(#clip0_10_338)">
<path d="M40.0004 0C29.3643 0 19.1866 4.21777 11.668 11.7593C4.17229 19.2779 -0.0454754 29.4785 0.000369873 40.1146C0.000369873 60.4241 22.923 88.2521 34.0405 100.607C35.5534 102.304 37.731 103.266 40.0004 103.266C42.2697 103.266 44.4474 102.304 45.9603 100.607C57.1236 88.2521 80.0004 60.3095 80.0004 40.1146C80.0462 29.4785 75.8284 19.2779 68.3327 11.7593C60.8141 4.21777 50.6365 0 40.0004 0ZM40.0004 63.1519C30.625 63.1519 22.1666 57.5129 18.5906 48.8481C15.0147 40.1834 17.009 30.212 23.6565 23.5874C30.3041 16.9627 40.2754 15.0143 48.9173 18.6361C57.5591 22.2579 63.1752 30.7393 63.1293 40.1146C63.0605 52.8367 52.7224 63.1289 40.0004 63.1519Z" fill="inherit"/>
</g>
<defs>
<clipPath id="clip0_10_338">
<rect width="80" height="103.266" fill="white"/>
</clipPath>
</defs>
</svg>
