<svg width="273" height="353" viewBox="0 0 273 353" fill="none" xmlns="http://www.w3.org/2000/svg">
<g clip-path="url(#clip0_10_338)">
<path d="M136.501 0C100.206 0 65.4743 14.3931 39.817 40.1287C14.2379 65.786 -0.155185 100.595 0.00126219 136.891C0.00126219 206.197 78.2248 301.16 116.163 343.323C121.326 349.111 128.757 352.397 136.501 352.397C144.245 352.397 151.677 349.111 156.839 343.323C194.934 301.16 273.001 205.806 273.001 136.891C273.158 100.595 258.765 65.786 233.186 40.1287C207.528 14.3931 172.797 0 136.501 0ZM136.501 215.506C104.508 215.506 75.6434 196.263 63.4405 166.694C51.2377 137.126 58.0431 103.099 80.7279 80.492C103.413 57.8854 137.44 51.2364 166.93 63.5957C196.42 75.955 215.585 104.898 215.429 136.891C215.194 180.305 179.915 215.427 136.501 215.506Z" fill="#383838"/>
</g>
<defs>
<clipPath id="clip0_10_338">
<rect width="273" height="352.397" fill="white"/>
</clipPath>
</defs>
</svg>
